<svg width="100%" height="100%" viewBox="0 0 1000 300" xmlns="http://www.w3.org/2000/svg"><defs><style>:root{--t:#161616;--s:#525252;--a:#525252;--b:rgba(244,244,244,.85)}@media(prefers-color-scheme:dark){:root{--t:#f4f4f4;--s:#c6c6c6;--a:#c6c6c6;--b:rgba(38,38,38,.85)}}.l{font-family:sans-serif;text-anchor:middle}.t{font-size:18px;font-weight:600;fill:var(--t)}.u{font-size:14px;font-weight:500;fill:var(--s)}.r{stroke:var(--a);stroke-width:3;fill:none;marker-end:url(#m)}.p{fill:url(#p);stroke:none}.g{fill:url(#g);stroke:none}.d{fill:url(#d);stroke:none}.s{fill:url(#s1);stroke:none}.b{fill:url(#b1);stroke:none}@keyframes f{0%{x1:0%;y1:0%;x2:100%;y2:100%}25%{x1:50%;x2:150%}50%{x1:100%;x2:200%}75%{x1:50%;x2:150%}100%{x1:0%;x2:100%}}linearGradient.fp{animation:f 6s infinite linear}linearGradient.fg{animation:f 5s infinite linear}linearGradient.fd{animation:f 7s infinite linear}linearGradient.fs{animation:f 6.5s infinite linear}linearGradient.fb{animation:f 8s infinite linear}</style><marker id="m" viewBox="0 0 10 10" refX="8" refY="5" markerWidth="6" markerHeight="6" orient="auto-start-reverse"><path d="M0 0 L10 5 L0 10 Z" fill="var(--a)"/></marker><linearGradient id="p" class="fp"><stop offset="0%" stop-color="#8A3FFC"/><stop offset="50%" stop-color="#FF6EC7"/><stop offset="100%" stop-color="#8A3FFC"/></linearGradient><linearGradient id="g" class="fg"><stop offset="0%" stop-color="#007D79"/><stop offset="50%" stop-color="#00FFD6"/><stop offset="100%" stop-color="#007D79"/></linearGradient><linearGradient id="d" class="fd"><stop offset="0%" stop-color="#D946EF"/><stop offset="50%" stop-color="#F59E0B"/><stop offset="100%" stop-color="#D946EF"/></linearGradient><linearGradient id="s1" class="fs"><stop offset="0%" stop-color="#008A75"/><stop offset="50%" stop-color="#00FFC2"/><stop offset="100%" stop-color="#008A75"/></linearGradient><linearGradient id="b1" class="fb"><stop offset="0%" stop-color="#393939"/><stop offset="50%" stop-color="#999999"/><stop offset="100%" stop-color="#393939"/></linearGradient></defs><rect x="360" y="55" width="280" height="30" rx="15" fill="var(--b)"/><text x="500" y="76" class="l t">IBM Cloud</text><g transform="translate(100,150)"><circle cx="0" cy="-15" r="10" class="p"/><path d="M-15 10 v-10 a15 15 0 0 1 30 0 v10" class="p"/><text y="55" class="l t">Vibe coder</text></g><line x1="150" y1="150" x2="250" y2="150" class="r"/><text x="200" y="130" class="l u">Vibe code goes here</text><g transform="translate(300,150)"><rect x="-15" y="-15" width="30" height="30" rx="5" class="g"/><text y="55" class="l t">GitLab repo</text></g><line x1="350" y1="150" x2="450" y2="150" class="r"/><g transform="translate(500,150)"><rect x="-15" y="-15" width="30" height="30" rx="5" class="d"/><path d="M-10 0 h20 M0 -10 v20" class="d"/><text y="55" class="l t">Pipeline</text></g><line x1="550" y1="150" x2="650" y2="150" class="r"/><g transform="translate(700,150)"><rect x="-15" y="-15" width="30" height="30" rx="5" class="s"/><path d="M-10 -10 h20 v20 h-20 Z" class="s"/><text y="55" class="l t">Free vibe code bucket</text></g><line x1="750" y1="150" x2="850" y2="150" class="r"/><text x="800" y="130" class="l u">Your app</text><g transform="translate(900,150)"><circle cx="0" cy="0" r="15" class="b"/><circle cx="0" cy="0" r="7.5" class="b"/><path d="M-15 0 h30 M0 -15 v30" class="b"/><text y="55" class="l t">User browser</text></g></svg>
